<svg version="1.1" id="Layer_1" xmlns="http://www.w3.org/2000/svg" xmlns:xlink="http://www.w3.org/1999/xlink" x="0px" y="0px"
	 width="100%" viewBox="0 0 490 490" enable-background="new 0 0 490 490" xml:space="preserve">
<path fill="#000000" opacity="1.000000" stroke="none" 
	d="
M235.000000,491.000000 
	C156.666687,491.000000 78.833374,491.000000 1.000042,491.000000 
	C1.000028,327.666718 1.000028,164.333450 1.000014,1.000129 
	C164.333237,1.000086 327.666473,1.000086 490.999817,1.000043 
	C490.999878,164.333206 490.999878,327.666412 490.999939,490.999817 
	C405.833344,491.000000 320.666656,491.000000 235.000000,491.000000 
M137.580444,271.034973 
	C137.533859,270.828888 137.487274,270.622833 137.440689,270.416748 
	C137.249741,270.571198 137.058777,270.725616 136.391434,271.086914 
	C136.391541,271.319458 136.391632,271.552002 136.391754,271.784546 
	C136.691010,271.616943 136.990280,271.449341 137.580444,271.034973 
M386.868896,164.445938 
	C386.557922,164.366013 386.246918,164.286102 385.506622,164.075897 
	C385.506622,164.075897 385.070984,163.968399 384.815704,163.377167 
	C384.204468,163.322647 383.593231,163.268143 382.511871,163.096664 
	C382.511871,163.096664 382.035889,163.006424 381.787506,162.425201 
	C381.186371,162.356125 380.585205,162.287064 379.556183,162.069565 
	C379.556183,162.069565 379.113586,161.973526 378.906311,161.475967 
	C378.588501,161.386993 378.270721,161.298035 377.174225,161.060547 
	C373.129120,160.343857 369.084015,159.627151 364.611816,158.247574 
	C353.159332,157.550644 341.712860,156.557831 330.250977,156.326447 
	C326.527771,156.251282 322.764343,158.167496 318.353058,159.048248 
	C317.904266,159.086182 317.455505,159.124130 316.218658,159.019150 
	C315.153107,159.046829 314.087585,159.074509 312.312775,158.988205 
	C311.225006,159.361099 310.137207,159.733994 308.314240,160.028595 
	C307.181152,160.312393 306.048035,160.596191 304.115417,160.872437 
	C301.090393,161.600998 298.065399,162.329559 294.090698,163.040649 
	C256.350830,163.024368 218.610947,162.997375 180.871155,163.040176 
	C179.658127,163.041550 178.445923,163.757751 176.792984,164.723694 
	C172.939804,175.334610 169.086624,185.945526 165.123032,197.507950 
	C165.582458,197.666962 166.041565,197.963959 166.501343,197.965012 
	C181.919434,197.999908 197.337646,198.022766 212.755569,197.969910 
	C213.531143,197.967239 214.304367,197.274109 215.829391,196.936386 
	C218.971207,195.789078 222.113022,194.641769 225.254837,193.494476 
	C225.413498,193.841827 225.572159,194.189178 225.730804,194.536545 
	C220.433090,198.098541 215.135376,201.660522 209.432755,205.317322 
	C209.196625,205.484131 209.025894,205.702209 208.990112,205.963913 
	C208.990112,205.963913 208.944229,205.911102 208.236542,205.952515 
	C195.839844,215.256516 183.249619,224.317001 171.120300,233.957413 
	C164.036087,239.587967 157.626694,246.080582 151.064209,252.343063 
	C149.827560,253.523209 149.301193,255.447678 147.703400,257.194824 
	C145.928329,259.187866 144.153259,261.180908 142.378204,263.173920 
	C142.908707,263.692932 143.439209,264.211945 143.969711,264.730957 
	C146.426575,262.595184 148.883423,260.459412 151.837021,257.834625 
	C153.436111,255.791550 154.842453,253.551407 156.681000,251.753143 
	C159.224442,249.265427 162.091553,247.108353 164.823074,244.813278 
	C170.332596,240.184097 175.574524,235.179779 181.412811,231.010742 
	C192.494156,223.097809 203.917526,215.663818 215.898865,207.972626 
	C217.884430,206.833038 219.803909,205.554062 221.866241,204.576401 
	C235.621735,198.055542 249.407745,191.599045 263.891693,184.967560 
	C273.272034,181.651566 282.651001,178.331635 292.033325,175.021240 
	C296.718109,173.368317 301.409027,171.732819 306.899536,170.022156 
	C311.651031,169.648529 316.522644,169.819199 321.132233,168.802322 
	C336.881653,165.328003 352.506226,166.749893 368.040344,169.682892 
	C375.808563,171.149628 383.367035,173.727295 391.594818,176.095016 
	C392.710754,177.077866 393.826660,178.060715 395.013214,179.766724 
	C396.457123,182.311050 397.901031,184.855392 399.632996,187.907349 
	C403.140137,182.642502 401.916931,178.470734 396.047821,171.955368 
	C396.047821,171.955368 395.999298,171.949646 395.828461,171.386734 
	C395.218842,170.916779 394.609222,170.446808 393.803192,169.529556 
	C393.602814,169.249100 393.332947,169.078918 392.765625,168.398239 
	C391.849335,167.929031 390.933044,167.459824 390.001495,166.997620 
	C390.001495,166.997620 390.007080,166.981689 389.790771,166.373718 
	C388.874207,165.916870 387.957642,165.460022 387.035370,164.961075 
	C387.035370,164.961075 386.993317,164.955215 386.868896,164.445938 
M141.979568,266.582977 
	C141.519501,266.531128 141.059433,266.479279 140.012390,266.710449 
	C139.721008,267.545624 139.429611,268.380798 139.138214,269.215973 
	C139.415268,269.342072 139.692322,269.468201 139.969376,269.594330 
	C140.661545,268.753265 141.353729,267.912201 141.979568,266.582977 
M168.252747,258.097076 
	C167.336044,259.618744 166.419342,261.140442 165.502625,262.662109 
	C166.149490,262.951782 166.796356,263.241455 167.443207,263.531128 
	C168.049225,261.811493 168.655228,260.091888 169.810852,258.333923 
	C171.576172,259.895721 172.812302,259.735687 173.963272,257.005920 
	C178.499100,253.868713 182.104004,249.643570 187.215622,247.061020 
	C192.595093,244.343155 197.400360,240.452621 202.335800,236.906479 
	C205.003647,234.989624 207.419449,232.721970 209.286209,231.165253 
	C212.102829,230.245132 214.437073,229.591797 216.683655,228.714096 
	C218.477310,228.013351 220.164230,227.039368 221.950256,226.978928 
	C219.973450,232.986328 217.996628,238.993729 215.779755,245.505432 
	C215.524857,246.666580 215.269974,247.827744 214.722275,249.190292 
	C214.669250,249.295441 214.545044,249.435623 214.576370,249.499268 
	C214.676453,249.702682 214.834244,249.877670 214.977921,250.525208 
	C214.977921,250.525208 214.989075,250.986710 214.660797,251.300919 
	C214.112610,251.864639 213.564407,252.428360 212.773621,253.517593 
	C212.815369,254.442001 213.172882,255.499466 212.848358,256.269531 
	C210.486465,261.874023 207.696823,267.317871 205.672806,273.035645 
	C204.849472,275.361481 205.610947,278.242828 205.622452,280.871552 
	C205.630539,282.719513 206.251541,284.959351 205.436539,286.336243 
	C203.601669,289.436188 205.005661,290.946228 207.001038,293.128113 
	C209.371124,295.719696 211.139008,298.896423 212.966370,301.940552 
	C214.899155,305.160278 215.788544,310.065582 218.556381,311.511810 
	C224.996536,314.876923 224.699631,320.198914 224.065994,325.897247 
	C219.677536,325.897247 215.289093,325.897247 210.900635,325.897247 
	C226.638351,326.979523 242.340042,326.991577 258.041504,326.936676 
	C258.688660,326.934418 259.333618,326.303986 260.328979,325.312012 
	C260.887970,322.876709 261.446991,320.441406 262.000000,318.000275 
	C262.000000,318.000275 262.005035,318.005402 262.447662,317.962646 
	C262.672577,317.809509 262.897491,317.656342 263.122406,317.503204 
	C262.757629,317.326080 262.392853,317.148956 262.019775,316.286591 
	C262.019775,315.320343 262.019775,314.354095 262.019775,313.201691 
	C262.950226,313.715546 263.647919,314.100861 263.836945,314.205231 
	C265.296448,310.013336 266.673981,306.056915 268.609985,301.660492 
	C271.081879,294.798920 273.565125,287.941406 276.021118,281.074127 
	C277.340759,277.384155 278.613647,273.677490 280.305603,269.361206 
	C282.219635,263.625458 284.133636,257.889709 286.404510,251.913544 
	C286.477051,251.791611 286.639862,251.605453 286.606628,251.558762 
	C286.456848,251.348297 286.251556,251.177307 286.090759,250.939957 
	C286.090759,250.939957 286.084229,250.882736 286.238831,250.221893 
	C288.591095,245.049652 291.215515,239.981277 293.237305,234.682938 
	C297.104095,224.549591 300.627930,214.285385 304.385620,203.820572 
	C302.456726,203.241653 301.179688,202.858368 299.823029,202.451187 
	C301.481018,201.180939 302.819641,200.155396 304.804138,199.224213 
	C306.191956,199.636047 307.597137,200.452408 308.964783,200.393799 
	C317.556061,200.025726 326.141205,199.496597 334.723572,198.946518 
	C337.789001,198.750031 340.841187,198.346924 344.211029,198.680344 
	C345.054230,199.132065 345.990112,200.091980 346.726471,199.957748 
	C355.069000,198.437012 362.834045,201.340836 370.700470,203.084702 
	C383.255371,205.867981 393.315887,212.488602 400.104248,223.635345 
	C402.249664,227.158234 404.299347,230.739441 406.487701,234.455078 
	C410.090088,231.054520 409.515991,226.998138 408.092316,223.130539 
	C403.933411,211.832489 395.628540,203.997971 385.093201,199.097351 
	C376.814056,195.246246 367.751648,193.079071 358.427948,190.167084 
	C357.987427,190.534531 357.546906,190.901978 356.501190,190.896652 
	C355.012054,190.303665 353.522888,189.710678 351.224731,189.041199 
	C349.498138,189.403091 347.771545,189.764984 345.279907,190.105331 
	C344.521545,190.012955 343.763184,189.920593 342.540558,189.257416 
	C340.975983,188.836990 339.390686,187.991196 337.850281,188.066360 
	C329.026459,188.496902 320.199127,188.990936 311.403076,189.793198 
	C307.570892,190.142731 303.810242,191.276978 299.190155,192.025009 
	C287.516357,194.838943 275.801544,197.498550 264.200165,200.584778 
	C261.586121,201.280167 259.367798,203.463196 256.337463,204.681915 
	C254.175552,205.145126 251.843185,205.240219 249.886307,206.146271 
	C245.468384,208.191803 241.236053,210.638153 236.542313,213.228058 
	C234.014282,214.825790 231.486252,216.423508 228.833359,217.420944 
	C228.167847,217.203445 227.310226,216.604309 226.866623,216.827637 
	C222.571686,218.989700 218.175827,221.023285 214.136612,223.606216 
	C205.824509,228.921509 197.586121,234.373398 189.565506,240.115616 
	C184.338165,243.858047 179.457611,248.108658 174.631577,252.369339 
	C173.561462,253.314102 173.374741,255.259445 172.095230,256.871674 
	C171.000702,257.171875 169.906189,257.472046 168.252747,258.097076 
M196.229279,324.966034 
	C193.278625,324.530304 190.327988,324.094574 187.377335,323.658844 
	C191.444885,327.398590 204.269882,328.098206 208.861298,325.513580 
	C207.633331,322.544861 205.513870,321.643127 202.545471,322.698090 
	C200.685455,323.359161 198.880264,324.174469 196.229279,324.966034 
z"/>
<path fill="#090909" opacity="1.000000" stroke="none" 
	d="
M215.015076,248.988892 
	C215.269974,247.827744 215.524857,246.666580 216.135376,245.492981 
	C218.129791,248.798828 219.658752,252.177567 221.440521,255.417252 
	C223.000534,258.253723 224.228851,262.230377 226.696548,263.402466 
	C231.263657,265.571686 232.960922,269.575745 235.328751,273.172607 
	C236.724899,275.293427 236.979279,278.130157 238.121231,280.461670 
	C240.335815,284.983337 242.707108,289.438416 245.249649,293.782898 
	C246.002182,295.068756 247.592148,295.844055 248.715393,296.938477 
	C250.182083,298.367554 251.705078,299.775543 252.938293,301.394867 
	C253.795166,302.520020 254.227875,303.975616 254.809647,305.301331 
	C256.223877,308.524017 257.489990,311.820221 259.077820,314.954010 
	C259.687378,316.157074 261.008911,316.999390 262.006012,318.006104 
	C261.446991,320.441406 260.887970,322.876709 259.688477,325.614319 
	C247.693451,325.859344 236.338928,325.802094 224.984406,325.744812 
	C224.699631,320.198914 224.996536,314.876923 218.556381,311.511810 
	C215.788544,310.065582 214.899155,305.160278 212.966370,301.940552 
	C211.139008,298.896423 209.371124,295.719696 207.001038,293.128113 
	C205.005661,290.946228 203.601669,289.436188 205.436539,286.336243 
	C206.251541,284.959351 205.630539,282.719513 205.622452,280.871552 
	C205.610947,278.242828 204.849472,275.361481 205.672806,273.035645 
	C207.696823,267.317871 210.486465,261.874023 212.848358,256.269531 
	C213.172882,255.499466 212.815369,254.442001 213.204407,253.248947 
	C214.086502,252.315765 214.537796,251.651245 214.989075,250.986725 
	C214.989075,250.986710 214.977921,250.525208 214.988541,250.025543 
	C215.004456,249.346878 215.009766,249.167892 215.015076,248.988892 
z"/>
<path fill="#131313" opacity="1.000000" stroke="none" 
	d="
M228.958221,218.021225 
	C231.486252,216.423508 234.014282,214.825790 236.983490,213.353729 
	C239.390869,214.250778 241.357056,215.022186 243.547241,215.881454 
	C241.958817,221.271622 244.093750,224.222458 249.589371,225.566635 
	C251.282822,225.980835 253.130783,228.095779 253.819000,229.857407 
	C256.029999,235.516876 257.423248,241.502243 259.732391,247.114883 
	C261.444702,251.276901 263.265717,255.463470 268.463654,257.189209 
	C272.103455,258.397644 275.094543,261.410614 274.920380,265.833344 
	C274.766571,269.738892 276.833618,270.300812 279.907654,269.978333 
	C278.613647,273.677490 277.340759,277.384155 276.021118,281.074127 
	C273.565125,287.941406 271.081879,294.798920 268.110962,301.595459 
	C263.246521,296.944305 263.038025,289.068115 255.696365,286.685150 
	C254.753448,286.379059 254.529465,283.787964 254.019714,282.239838 
	C253.614563,281.009277 253.677429,279.305145 252.854874,278.581390 
	C245.369934,271.995728 245.871155,259.663300 235.816010,254.983551 
	C235.684052,254.922134 235.592926,254.738129 235.518509,254.593002 
	C232.939423,249.565033 230.091400,244.651520 227.877686,239.467239 
	C226.175797,235.481567 225.273193,231.154617 224.255890,226.732483 
	C225.983841,223.664108 227.471024,220.842667 228.958221,218.021225 
z"/>
<path fill="#201E1F" opacity="1.000000" stroke="none" 
	d="
M304.158234,199.129852 
	C302.819641,200.155396 301.481018,201.180939 299.823029,202.451187 
	C301.179688,202.858368 302.456726,203.241653 304.385620,203.820572 
	C300.627930,214.285385 297.104095,224.549591 293.237305,234.682938 
	C291.215515,239.981277 288.591095,245.049652 285.839722,250.652817 
	C284.578339,251.876526 283.716064,252.669312 282.853790,253.462097 
	C282.563934,253.297577 282.274109,253.133072 281.984253,252.968567 
	C283.220612,249.939926 284.456940,246.911301 285.459595,244.455139 
	C284.027893,243.439102 283.016388,242.721268 282.101990,241.957397 
	C282.199097,241.911362 282.212708,241.651489 282.212708,241.651489 
	C282.212708,241.651489 281.996582,241.995361 281.651001,241.909088 
	C280.909546,241.532394 280.331970,241.329025 280.144897,240.938553 
	C277.007812,234.391510 276.497864,226.104080 268.175385,223.009460 
	C268.049469,222.962662 267.934082,222.754501 267.903534,222.603500 
	C266.817749,217.238495 259.986664,213.501724 264.143524,206.950836 
	C261.295807,206.161377 259.131561,205.561386 256.967285,204.961395 
	C259.367798,203.463196 261.586121,201.280167 264.200165,200.584778 
	C275.801544,197.498550 287.516357,194.838943 299.536743,192.323029 
	C299.339264,193.304169 298.795227,193.987259 298.218170,194.711807 
	C299.155182,194.957993 299.959534,195.169342 299.872894,195.146576 
	C299.242249,196.403870 298.678009,197.528732 297.874878,199.129852 
	C300.527771,199.129852 302.343018,199.129852 304.158234,199.129852 
z"/>
<path fill="#98111C" opacity="1.000000" stroke="none" 
	d="
M209.837646,205.222534 
	C215.135376,201.660522 220.433090,198.098541 225.730804,194.536545 
	C225.572159,194.189178 225.413498,193.841827 225.254837,193.494476 
	C222.113022,194.641769 218.971207,195.789078 214.983566,196.863708 
	C197.836304,196.712845 181.534882,196.634644 165.233459,196.556427 
	C169.086624,185.945526 172.939804,175.334610 177.459961,164.402069 
	C215.235794,164.078873 252.344666,164.092056 289.453430,164.032516 
	C291.316254,164.029526 293.178070,163.397324 295.040375,163.058105 
	C298.065399,162.329559 301.090393,161.600998 304.339478,161.192383 
	C299.333984,163.081390 294.183899,165.531067 288.856049,166.012161 
	C280.959015,166.725266 272.935944,166.042770 264.502014,165.952225 
	C247.460373,165.965790 230.883102,165.947632 214.306412,166.039352 
	C212.192352,166.051041 210.081436,166.636154 207.590332,166.792023 
	C198.738449,166.628433 190.265320,166.628433 181.792175,166.628433 
	C181.513992,167.304764 181.235809,167.981094 180.957626,168.657425 
	C184.229401,172.498856 187.366348,176.467056 190.818558,180.138840 
	C193.270142,182.746338 196.098358,185.011566 198.842789,187.329742 
	C209.328766,196.187088 207.783951,197.013733 220.969513,190.246140 
	C222.343018,189.541168 223.021576,187.482178 224.382721,186.100327 
	C228.489304,187.096756 232.235764,188.044266 235.930344,189.340790 
	C233.963120,191.010925 232.047760,192.332077 230.132401,193.653244 
	C230.692215,194.425522 231.252014,195.197800 231.811829,195.970093 
	C237.272324,194.700912 242.221069,192.075821 247.343735,188.889862 
	C252.459473,187.139465 257.245056,185.535889 262.252869,184.099915 
	C262.711334,184.552231 262.947601,184.836929 263.183838,185.121628 
	C249.407745,191.599045 235.621735,198.055542 221.866241,204.576401 
	C219.803909,205.554062 217.884430,206.833038 215.298752,207.791992 
	C213.105377,205.945099 209.304733,211.749512 208.944229,205.911102 
	C208.944229,205.911102 208.990112,205.963913 209.139191,205.881531 
	C209.517731,205.651062 209.700867,205.458862 209.837646,205.222534 
z"/>
<path fill="#191718" opacity="1.000000" stroke="none" 
	d="
M282.004883,242.003433 
	C283.016388,242.721268 284.027893,243.439102 285.459595,244.455139 
	C284.456940,246.911301 283.220612,249.939926 281.984253,252.968567 
	C282.274109,253.133072 282.563934,253.297577 282.853790,253.462097 
	C283.716064,252.669312 284.578339,251.876526 285.762421,250.983246 
	C286.084229,250.882736 286.090759,250.939957 286.061401,251.256195 
	C286.037292,251.766266 286.042480,251.960114 286.047668,252.153946 
	C284.133636,257.889709 282.219635,263.625458 280.106628,269.669769 
	C276.833618,270.300812 274.766571,269.738892 274.920380,265.833344 
	C275.094543,261.410614 272.103455,258.397644 268.463654,257.189209 
	C263.265717,255.463470 261.444702,251.276901 259.732391,247.114883 
	C257.423248,241.502243 256.029999,235.516876 253.819000,229.857407 
	C253.130783,228.095779 251.282822,225.980835 249.589371,225.566635 
	C244.093750,224.222458 241.958817,221.271622 243.547241,215.881454 
	C241.357056,215.022186 239.390869,214.250778 237.176453,213.200409 
	C241.236053,210.638153 245.468384,208.191803 249.886307,206.146271 
	C251.843185,205.240219 254.175552,205.145126 256.652374,204.821655 
	C259.131561,205.561386 261.295807,206.161377 264.143524,206.950836 
	C259.986664,213.501724 266.817749,217.238495 267.903534,222.603500 
	C267.934082,222.754501 268.049469,222.962662 268.175385,223.009460 
	C276.497864,226.104080 277.007812,234.391510 280.144897,240.938553 
	C280.331970,241.329025 280.909546,241.532394 281.652710,241.911407 
	C282.000000,242.000000 282.004883,242.003433 282.004883,242.003433 
z"/>
<path fill="#0D0D0D" opacity="1.000000" stroke="none" 
	d="
M224.015137,226.979431 
	C225.273193,231.154617 226.175797,235.481567 227.877686,239.467239 
	C230.091400,244.651520 232.939423,249.565033 235.518509,254.593002 
	C235.592926,254.738129 235.684052,254.922134 235.816010,254.983551 
	C245.871155,259.663300 245.369934,271.995728 252.854874,278.581390 
	C253.677429,279.305145 253.614563,281.009277 254.019714,282.239838 
	C254.529465,283.787964 254.753448,286.379059 255.696365,286.685150 
	C263.038025,289.068115 263.246521,296.944305 267.831726,301.815491 
	C266.673981,306.056915 265.296448,310.013336 263.836945,314.205231 
	C263.647919,314.100861 262.950226,313.715546 262.019775,313.201691 
	C262.019775,314.354095 262.019775,315.320343 262.016174,316.887695 
	C262.010071,317.661041 262.007568,317.833221 262.005035,318.005402 
	C262.005035,318.005402 262.000000,318.000275 262.002991,318.003174 
	C261.008911,316.999390 259.687378,316.157074 259.077820,314.954010 
	C257.489990,311.820221 256.223877,308.524017 254.809647,305.301331 
	C254.227875,303.975616 253.795166,302.520020 252.938293,301.394867 
	C251.705078,299.775543 250.182083,298.367554 248.715393,296.938477 
	C247.592148,295.844055 246.002182,295.068756 245.249649,293.782898 
	C242.707108,289.438416 240.335815,284.983337 238.121231,280.461670 
	C236.979279,278.130157 236.724899,275.293427 235.328751,273.172607 
	C232.960922,269.575745 231.263657,265.571686 226.696548,263.402466 
	C224.228851,262.230377 223.000534,258.253723 221.440521,255.417252 
	C219.658752,252.177567 218.129791,248.798828 216.255402,245.240829 
	C217.996628,238.993729 219.973450,232.986328 222.224274,226.574097 
	C223.003922,226.439316 223.509537,226.709366 224.015137,226.979431 
z"/>
<path fill="#D42118" opacity="1.000000" stroke="none" 
	d="
M264.966522,165.954391 
	C272.935944,166.042770 280.959015,166.725266 288.856049,166.012161 
	C294.183899,165.531067 299.333984,163.081390 304.739258,161.196152 
	C306.048035,160.596191 307.181152,160.312393 308.932922,160.260834 
	C310.708435,160.029434 311.865234,159.565811 313.022034,159.102188 
	C314.087585,159.074509 315.153107,159.046829 316.600250,159.422821 
	C316.139343,164.221237 319.118225,164.898849 322.284515,164.990021 
	C334.671539,165.346756 347.063812,165.522873 359.450592,165.885788 
	C362.701843,165.981049 365.991974,166.251556 369.173126,166.893402 
	C374.329620,167.933807 379.359009,169.679138 384.541779,170.488144 
	C388.046570,171.035202 390.389282,172.152054 391.020355,175.802505 
	C383.367035,173.727295 375.808563,171.149628 368.040344,169.682892 
	C352.506226,166.749893 336.881653,165.328003 321.132233,168.802322 
	C316.522644,169.819199 311.651031,169.648529 306.072479,170.039642 
	C295.488800,172.403549 285.732178,174.750000 275.794678,176.767914 
	C271.180023,174.323502 266.746216,172.207642 262.167877,170.022797 
	C263.413605,168.211853 264.190063,167.083115 264.966522,165.954391 
z"/>
<path fill="#333233" opacity="1.000000" stroke="none" 
	d="
M343.004822,189.828217 
	C343.763184,189.920593 344.521545,190.012955 345.916382,190.337799 
	C348.579498,190.839386 351.396545,194.091049 352.033752,189.117691 
	C353.522888,189.710678 355.012054,190.303665 356.996704,191.220642 
	C358.007202,191.084366 358.522186,190.624100 359.037170,190.163834 
	C367.751648,193.079071 376.814056,195.246246 385.093201,199.097351 
	C395.628540,203.997971 403.933411,211.832489 408.092316,223.130539 
	C409.515991,226.998138 410.090088,231.054520 406.487701,234.455078 
	C404.299347,230.739441 402.249664,227.158234 400.104248,223.635345 
	C393.315887,212.488602 383.255371,205.867981 370.700470,203.084702 
	C362.834045,201.340836 355.069000,198.437012 346.726471,199.957748 
	C345.990112,200.091980 345.054230,199.132065 344.477112,198.337204 
	C346.125336,197.252670 347.507507,196.511261 348.889679,195.769867 
	C347.692352,194.826797 346.401672,193.977859 345.326447,192.911636 
	C344.422394,192.015121 343.769135,190.865677 343.004822,189.828217 
z"/>
<path fill="#ED1B09" opacity="1.000000" stroke="none" 
	d="
M391.307587,175.948761 
	C390.389282,172.152054 388.046570,171.035202 384.541779,170.488144 
	C379.359009,169.679138 374.329620,167.933807 369.173126,166.893402 
	C365.991974,166.251556 362.701843,165.981049 359.450592,165.885788 
	C347.063812,165.522873 334.671539,165.346756 322.284515,164.990021 
	C319.118225,164.898849 316.139343,164.221237 316.994263,159.494278 
	C317.455505,159.124130 317.904266,159.086182 318.940918,159.344269 
	C320.764679,160.052841 322.664368,161.190521 323.131317,160.763092 
	C326.834167,157.373489 331.196503,159.080292 335.239624,158.949570 
	C342.142944,158.726364 349.058868,158.891800 355.969482,158.896194 
	C358.992615,158.898132 362.015778,158.905533 365.038910,158.910461 
	C369.084015,159.627151 373.129120,160.343857 377.721954,161.311996 
	C378.511169,161.782059 378.792480,161.918747 379.113586,161.973526 
	C379.113586,161.973526 379.556183,162.069565 379.980469,162.336487 
	C380.948456,162.737762 381.492157,162.872086 382.035889,163.006424 
	C382.035889,163.006424 382.511871,163.096664 382.963470,163.346252 
	C383.967041,163.720032 384.519012,163.844208 385.070984,163.968399 
	C385.070984,163.968399 385.506622,164.075897 385.854492,164.321457 
	C386.421539,164.787109 386.685181,164.916504 386.993317,164.955215 
	C386.993317,164.955215 387.035370,164.961075 387.097839,165.315338 
	C388.109253,166.106949 389.058167,166.544312 390.007080,166.981689 
	C390.007080,166.981689 390.001495,166.997620 390.077393,167.325775 
	C391.100067,168.108948 392.046783,168.563965 392.993530,169.018982 
	C393.332947,169.078918 393.602814,169.249100 393.951843,170.065994 
	C394.733398,171.051498 395.366364,171.500580 395.999298,171.949646 
	C395.999298,171.949646 396.047821,171.955368 396.017883,172.367050 
	C396.225922,174.049820 396.743774,175.352020 396.607086,176.581436 
	C396.510162,177.453049 395.529022,178.226349 394.942596,179.043549 
	C393.826660,178.060715 392.710754,177.077866 391.307587,175.948761 
z"/>
<path fill="#282728" opacity="1.000000" stroke="none" 
	d="
M342.772705,189.542816 
	C343.769135,190.865677 344.422394,192.015121 345.326447,192.911636 
	C346.401672,193.977859 347.692352,194.826797 348.889679,195.769867 
	C347.507507,196.511261 346.125336,197.252670 344.321289,198.016083 
	C340.841187,198.346924 337.789001,198.750031 334.723572,198.946518 
	C326.141205,199.496597 317.556061,200.025726 308.964783,200.393799 
	C307.597137,200.452408 306.191956,199.636047 304.481201,199.177032 
	C302.343018,199.129852 300.527771,199.129852 297.874878,199.129852 
	C298.678009,197.528732 299.242249,196.403870 299.872894,195.146576 
	C299.959534,195.169342 299.155182,194.957993 298.218170,194.711807 
	C298.795227,193.987259 299.339264,193.304169 299.950195,192.337952 
	C303.810242,191.276978 307.570892,190.142731 311.403076,189.793198 
	C320.199127,188.990936 329.026459,188.496902 337.850281,188.066360 
	C339.390686,187.991196 340.975983,188.836990 342.772705,189.542816 
z"/>
<path fill="#702738" opacity="1.000000" stroke="none" 
	d="
M208.590393,205.931808 
	C209.304733,211.749512 213.105377,205.945099 214.948730,207.821136 
	C203.917526,215.663818 192.494156,223.097809 181.412811,231.010742 
	C175.574524,235.179779 170.332596,240.184097 164.823074,244.813278 
	C162.091553,247.108353 159.224442,249.265427 156.681000,251.753143 
	C154.842453,253.551407 153.436111,255.791550 151.269928,257.981720 
	C149.950912,257.762115 149.198990,257.395386 148.447083,257.028687 
	C149.301193,255.447678 149.827560,253.523209 151.064209,252.343063 
	C157.626694,246.080582 164.036087,239.587967 171.120300,233.957413 
	C183.249619,224.317001 195.839844,215.256516 208.590393,205.931808 
z"/>
<path fill="#191718" opacity="1.000000" stroke="none" 
	d="
M224.255890,226.732483 
	C223.509537,226.709366 223.003922,226.439316 222.198425,226.177979 
	C220.164230,227.039368 218.477310,228.013351 216.683655,228.714096 
	C214.437073,229.591797 212.102829,230.245132 209.286209,231.165253 
	C207.419449,232.721970 205.003647,234.989624 202.335800,236.906479 
	C197.400360,240.452621 192.595093,244.343155 187.215622,247.061020 
	C182.104004,249.643570 178.499100,253.868713 173.505020,257.007690 
	C173.046768,257.009491 172.781265,256.744080 172.781265,256.744080 
	C173.374741,255.259445 173.561462,253.314102 174.631577,252.369339 
	C179.457611,248.108658 184.338165,243.858047 189.565506,240.115616 
	C197.586121,234.373398 205.824509,228.921509 214.136612,223.606216 
	C218.175827,221.023285 222.571686,218.989700 226.866623,216.827637 
	C227.310226,216.604309 228.167847,217.203445 228.895782,217.721085 
	C227.471024,220.842667 225.983841,223.664108 224.255890,226.732483 
M222.447281,222.241089 
	C222.184341,222.056793 221.921402,221.872482 221.658478,221.688171 
	C221.826981,221.961578 221.995468,222.235001 222.447281,222.241089 
M195.419998,239.486038 
	C195.419998,239.486038 195.488068,239.450424 195.419998,239.486038 
z"/>
<path fill="#FFC5C5" opacity="1.000000" stroke="none" 
	d="
M294.565552,163.049377 
	C293.178070,163.397324 291.316254,164.029526 289.453430,164.032516 
	C252.344666,164.092056 215.235794,164.078873 177.680145,164.110565 
	C178.445923,163.757751 179.658127,163.041550 180.871155,163.040176 
	C218.610947,162.997375 256.350830,163.024368 294.565552,163.049377 
z"/>
<path fill="#AD0B12" opacity="1.000000" stroke="none" 
	d="
M275.975555,177.096436 
	C285.732178,174.750000 295.488800,172.403549 305.671265,170.073273 
	C301.409027,171.732819 296.718109,173.368317 292.033325,175.021240 
	C282.651001,178.331635 273.272034,181.651566 263.537781,185.044586 
	C262.947601,184.836929 262.711334,184.552231 262.344727,183.772339 
	C266.801422,181.216888 271.388489,179.156662 275.975555,177.096436 
z"/>
<path fill="#D42118" opacity="1.000000" stroke="none" 
	d="
M364.825378,158.579010 
	C362.015778,158.905533 358.992615,158.898132 355.969482,158.896194 
	C349.058868,158.891800 342.142944,158.726364 335.239624,158.949570 
	C331.196503,159.080292 326.834167,157.373489 323.131317,160.763092 
	C322.664368,161.190521 320.764679,160.052841 319.274048,159.406586 
	C322.764343,158.167496 326.527771,156.251282 330.250977,156.326447 
	C341.712860,156.557831 353.159332,157.550644 364.825378,158.579010 
z"/>
<path fill="#090909" opacity="1.000000" stroke="none" 
	d="
M196.639877,324.943298 
	C198.880264,324.174469 200.685455,323.359161 202.545471,322.698090 
	C205.513870,321.643127 207.633331,322.544861 208.861298,325.513580 
	C204.269882,328.098206 191.444885,327.398590 187.377335,323.658844 
	C190.327988,324.094574 193.278625,324.530304 196.639877,324.943298 
z"/>
<path fill="#D42118" opacity="1.000000" stroke="none" 
	d="
M394.977905,179.405121 
	C395.529022,178.226349 396.510162,177.453049 396.607086,176.581436 
	C396.743774,175.352020 396.225922,174.049820 396.020508,172.391327 
	C401.916931,178.470734 403.140137,182.642502 399.632996,187.907349 
	C397.901031,184.855392 396.457123,182.311050 394.977905,179.405121 
z"/>
<path fill="#FFC5C5" opacity="1.000000" stroke="none" 
	d="
M224.525208,325.821045 
	C236.338928,325.802094 247.693451,325.859344 259.513794,325.941406 
	C259.333618,326.303986 258.688660,326.934418 258.041504,326.936676 
	C242.340042,326.991577 226.638351,326.979523 210.900635,325.897247 
	C215.289093,325.897247 219.677536,325.897247 224.525208,325.821045 
z"/>
<path fill="#FFC5C5" opacity="1.000000" stroke="none" 
	d="
M165.178238,197.032196 
	C181.534882,196.634644 197.836304,196.712845 214.608215,196.846756 
	C214.304367,197.274109 213.531143,197.967239 212.755569,197.969910 
	C197.337646,198.022766 181.919434,197.999908 166.501343,197.965012 
	C166.041565,197.963959 165.582458,197.666962 165.178238,197.032196 
z"/>
<path fill="#333233" opacity="1.000000" stroke="none" 
	d="
M148.075241,257.111755 
	C149.198990,257.395386 149.950912,257.762115 151.021545,258.226227 
	C148.883423,260.459412 146.426575,262.595184 143.969711,264.730957 
	C143.439209,264.211945 142.908707,263.692932 142.378204,263.173920 
	C144.153259,261.180908 145.928329,259.187866 148.075241,257.111755 
z"/>
<path fill="#282728" opacity="1.000000" stroke="none" 
	d="
M351.629242,189.079437 
	C351.396545,194.091049 348.579498,190.839386 346.298920,190.348572 
	C347.771545,189.764984 349.498138,189.403091 351.629242,189.079437 
z"/>
<path fill="#191718" opacity="1.000000" stroke="none" 
	d="
M169.261230,258.372284 
	C168.655228,260.091888 168.049225,261.811493 167.443207,263.531128 
	C166.796356,263.241455 166.149490,262.951782 165.502625,262.662109 
	C166.419342,261.140442 167.336044,259.618744 168.648117,258.082489 
	C169.043488,258.067902 169.261230,258.372284 169.261230,258.372284 
z"/>
<path fill="#98111C" opacity="1.000000" stroke="none" 
	d="
M312.667419,159.045197 
	C311.865234,159.565811 310.708435,160.029434 309.300537,160.299973 
	C310.137207,159.733994 311.225006,159.361099 312.667419,159.045197 
z"/>
<path fill="#191718" opacity="1.000000" stroke="none" 
	d="
M173.190399,257.130310 
	C172.812302,259.735687 171.576172,259.895721 169.536041,258.353088 
	C169.261230,258.372284 169.043488,258.067902 168.927582,257.920044 
	C169.906189,257.472046 171.000702,257.171875 172.438248,256.807861 
	C172.781265,256.744080 173.046768,257.009491 173.190399,257.130310 
z"/>
<path fill="#702738" opacity="1.000000" stroke="none" 
	d="
M142.045914,267.071136 
	C141.353729,267.912201 140.661545,268.753265 139.969376,269.594330 
	C139.692322,269.468201 139.415268,269.342072 139.138214,269.215973 
	C139.429611,268.380798 139.721008,267.545624 140.654968,266.761230 
	C141.547012,266.898376 141.796463,266.984741 142.045914,267.071136 
z"/>
<path fill="#D42118" opacity="1.000000" stroke="none" 
	d="
M392.879578,168.708618 
	C392.046783,168.563965 391.100067,168.108948 390.085022,167.322266 
	C390.933044,167.459824 391.849335,167.929031 392.879578,168.708618 
z"/>
<path fill="#D42118" opacity="1.000000" stroke="none" 
	d="
M389.898926,166.677704 
	C389.058167,166.544312 388.109253,166.106949 387.100708,165.336365 
	C387.957642,165.460022 388.874207,165.916870 389.898926,166.677704 
z"/>
<path fill="#0D0D0D" opacity="1.000000" stroke="none" 
	d="
M214.824951,251.143829 
	C214.537796,251.651245 214.086502,252.315765 213.325714,252.986176 
	C213.564407,252.428360 214.112610,251.864639 214.824951,251.143829 
z"/>
<path fill="#282728" opacity="1.000000" stroke="none" 
	d="
M358.732544,190.165466 
	C358.522186,190.624100 358.007202,191.084366 357.299286,191.407028 
	C357.546906,190.901978 357.987427,190.534531 358.732544,190.165466 
z"/>
<path fill="#D42118" opacity="1.000000" stroke="none" 
	d="
M395.913879,171.668182 
	C395.366364,171.500580 394.733398,171.051498 394.050049,170.289642 
	C394.609222,170.446808 395.218842,170.916779 395.913879,171.668182 
z"/>
<path fill="#D42118" opacity="1.000000" stroke="none" 
	d="
M384.943359,163.672791 
	C384.519012,163.844208 383.967041,163.720032 383.198547,163.404724 
	C383.593231,163.268143 384.204468,163.322647 384.943359,163.672791 
z"/>
<path fill="#333233" opacity="1.000000" stroke="none" 
	d="
M142.012741,266.827057 
	C141.796463,266.984741 141.547012,266.898376 140.948456,266.619690 
	C141.059433,266.479279 141.519501,266.531128 142.012741,266.827057 
z"/>
<path fill="#090909" opacity="1.000000" stroke="none" 
	d="
M262.226349,317.984009 
	C262.007568,317.833221 262.010071,317.661041 262.020325,317.230316 
	C262.392853,317.148956 262.757629,317.326080 263.122406,317.503204 
	C262.897491,317.656342 262.672577,317.809509 262.226349,317.984009 
z"/>
<path fill="#D42118" opacity="1.000000" stroke="none" 
	d="
M381.911682,162.715820 
	C381.492157,162.872086 380.948456,162.737762 380.194397,162.410706 
	C380.585205,162.287064 381.186371,162.356125 381.911682,162.715820 
z"/>
<path fill="#0D0D0D" opacity="1.000000" stroke="none" 
	d="
M214.868683,249.089600 
	C215.009766,249.167892 215.004456,249.346878 214.984467,249.794769 
	C214.834244,249.877670 214.676453,249.702682 214.576370,249.499268 
	C214.545044,249.435623 214.669250,249.295441 214.868683,249.089600 
z"/>
<path fill="#D42118" opacity="1.000000" stroke="none" 
	d="
M386.931091,164.700577 
	C386.685181,164.916504 386.421539,164.787109 386.069153,164.386597 
	C386.246918,164.286102 386.557922,164.366013 386.931091,164.700577 
z"/>
<path fill="#201E1F" opacity="1.000000" stroke="none" 
	d="
M286.226074,252.033752 
	C286.042480,251.960114 286.037292,251.766266 286.049164,251.282257 
	C286.251556,251.177307 286.456848,251.348297 286.606628,251.558762 
	C286.639862,251.605453 286.477051,251.791611 286.226074,252.033752 
z"/>
<path fill="#702738" opacity="1.000000" stroke="none" 
	d="
M209.635208,205.269928 
	C209.700867,205.458862 209.517731,205.651062 209.104431,205.885345 
	C209.025894,205.702209 209.196625,205.484131 209.635208,205.269928 
z"/>
<path fill="#702738" opacity="1.000000" stroke="none" 
	d="
M136.867813,270.880035 
	C137.058777,270.725616 137.249741,270.571198 137.440689,270.416748 
	C137.487274,270.622833 137.533859,270.828888 137.329498,271.057983 
	C137.078552,271.080994 136.867813,270.880035 136.867813,270.880035 
z"/>
<path fill="#702738" opacity="1.000000" stroke="none" 
	d="
M137.184052,271.181366 
	C136.990280,271.449341 136.691010,271.616943 136.391754,271.784546 
	C136.391632,271.552002 136.391541,271.319458 136.629623,270.983459 
	C136.867813,270.880035 137.078552,271.080994 137.184052,271.181366 
z"/>
<path fill="#D42118" opacity="1.000000" stroke="none" 
	d="
M379.009949,161.724747 
	C378.792480,161.918747 378.511169,161.782059 378.111298,161.386261 
	C378.270721,161.298035 378.588501,161.386993 379.009949,161.724747 
z"/>
<path fill="#191718" opacity="1.000000" stroke="none" 
	d="
M281.998291,241.997681 
	C281.996582,241.995361 282.212708,241.651489 282.212708,241.651489 
	C282.212708,241.651489 282.199097,241.911362 282.101990,241.957397 
	C282.004883,242.003433 282.000000,242.000000 281.998291,241.997681 
z"/>
<path fill="#BC0E0E" opacity="1.000000" stroke="none" 
	d="
M275.794678,176.767914 
	C271.388489,179.156662 266.801422,181.216888 262.122498,183.604721 
	C257.245056,185.535889 252.459473,187.139465 246.915985,188.881027 
	C243.963699,188.300430 241.809067,187.352081 239.557770,186.963058 
	C238.480667,186.776917 237.220367,187.651062 236.028900,188.279907 
	C236.014755,188.514801 235.993469,188.984970 235.995575,188.990936 
	C235.997681,188.996887 235.982208,188.991791 235.982208,188.991791 
	C232.235764,188.044266 228.489304,187.096756 224.208496,185.800079 
	C218.558838,179.762604 213.435135,174.081787 208.350281,168.366425 
	C208.060593,168.040833 208.088806,167.432404 207.969070,166.955612 
	C210.081436,166.636154 212.192352,166.051041 214.306412,166.039352 
	C230.883102,165.947632 247.460373,165.965790 264.502014,165.952225 
	C264.190063,167.083115 263.413605,168.211853 262.167877,170.022797 
	C266.746216,172.207642 271.180023,174.323502 275.794678,176.767914 
z"/>
<path fill="#AD0B12" opacity="1.000000" stroke="none" 
	d="
M207.590332,166.792023 
	C208.088806,167.432404 208.060593,168.040833 208.350281,168.366425 
	C213.435135,174.081787 218.558838,179.762604 223.848343,185.751160 
	C223.021576,187.482178 222.343018,189.541168 220.969513,190.246140 
	C207.783951,197.013733 209.328766,196.187088 198.842789,187.329742 
	C196.098358,185.011566 193.270142,182.746338 190.818558,180.138840 
	C187.366348,176.467056 184.229401,172.498856 180.957626,168.657425 
	C181.235809,167.981094 181.513992,167.304764 181.792175,166.628433 
	C190.265320,166.628433 198.738449,166.628433 207.590332,166.792023 
z"/>
<path fill="#AD0B12" opacity="1.000000" stroke="none" 
	d="
M236.043030,188.044998 
	C237.220367,187.651062 238.480667,186.776917 239.557770,186.963058 
	C241.809067,187.352081 243.963699,188.300430 246.585785,189.027863 
	C242.221069,192.075821 237.272324,194.700912 231.811829,195.970093 
	C231.252014,195.197800 230.692215,194.425522 230.132401,193.653244 
	C232.047760,192.332077 233.963120,191.010925 235.930344,189.340790 
	C235.982208,188.991791 235.997681,188.996887 236.125122,188.900269 
	C236.443176,188.497940 236.373337,188.245056 236.043030,188.044998 
z"/>
<path fill="#131313" opacity="1.000000" stroke="none" 
	d="
M222.305634,222.374756 
	C221.995468,222.235001 221.826981,221.961578 221.658478,221.688171 
	C221.921402,221.872482 222.184341,222.056793 222.305634,222.374756 
z"/>
<path fill="#000000" opacity="1.000000" stroke="none" 
	d="
M195.454041,239.468231 
	C195.488068,239.450424 195.419998,239.486038 195.454041,239.468231 
z"/>
<path fill="#98111C" opacity="1.000000" stroke="none" 
	d="
M236.028900,188.279907 
	C236.373337,188.245056 236.443176,188.497940 236.123016,188.894302 
	C235.993469,188.984970 236.014755,188.514801 236.028900,188.279907 
z"/>
</svg>