
<svg version="1.0" xmlns="http://www.w3.org/2000/svg"
 width="504.000000pt" height="444.000000pt" viewBox="0 0 504.000000 444.000000"
 preserveAspectRatio="xMidYMid meet">

<g transform="translate(0.000000,444.000000) scale(0.100000,-0.100000)"
fill="#000000" stroke="none">
<path d="M1240 3700 c-400 -38 -652 -208 -724 -486 -92 -356 197 -811 764
-1206 218 -151 540 -327 803 -438 l127 -54 0 -538 0 -538 243 2 242 3 3 450 2
451 169 -43 c336 -84 583 -117 871 -117 212 0 324 11 469 50 93 24 238 86 276
118 11 9 -5 3 -35 -13 -500 -272 -1548 -127 -2545 353 -705 340 -1201 779
-1334 1181 -27 81 -32 113 -33 189 0 167 44 280 151 387 160 159 393 229 764
230 103 0 213 -2 245 -6 117 -13 279 -36 355 -51 43 -9 81 -14 83 -11 7 7
-251 54 -386 71 -152 20 -392 27 -510 16z"/>
<path d="M1385 3610 c-287 -22 -494 -99 -631 -235 -220 -217 -198 -462 73
-822 209 -278 619 -584 1075 -802 532 -255 1133 -414 1742 -461 302 -23 510 3
723 93 270 114 375 310 297 557 l-18 55 -7 -73 c-27 -278 -337 -426 -889 -426
-177 0 -227 4 -365 28 -560 96 -961 217 -1371 415 -611 295 -1039 678 -1120
1001 -58 229 109 447 406 533 133 39 258 50 469 44 297 -9 612 -66 1051 -192
68 -19 125 -33 127 -31 6 5 -242 101 -362 140 -418 135 -871 201 -1200 176z"/>
<path d="M2168 3603 c7 -3 16 -2 19 1 4 3 -2 6 -13 5 -11 0 -14 -3 -6 -6z"/>
<path d="M1380 3048 c-1 -28 -1 -404 -1 -420 1 -17 28 -18 416 -18 l415 0 0
-344 0 -345 83 -32 c159 -62 390 -140 396 -133 3 3 7 196 9 430 l3 424 412 2
412 3 3 223 2 222 -1075 0 c-853 0 -1075 -3 -1075 -12z"/>
<path d="M4569 1423 l-24 -28 28 24 c25 23 32 31 24 31 -2 0 -14 -12 -28 -27z"/>
<path d="M4519 1383 c-13 -16 -12 -17 4 -4 9 7 17 15 17 17 0 8 -8 3 -21 -13z"/>
</g>
</svg>
